**ABCDEFGHIJKLMNOPQRSTUVWXYZabcdefghijklmnopqrstuvwxyz**************************
**PARASOLID !"#$%&'()*+,-./:;<=>?@[\]^_`{|}~0123456789**************************
**PART1;
MC=AMD64;
MC_MODEL=AMD64 Family 23 Model 113 Stepping 0, AuthenticAMD;
MC_ID=unknown;
OS=Windows_NT;
OS_RELEASE=unknown;
FRU=Parasolid Version 31.0, build 264, 12-10-2018;
APPL=SOLIDWORKS 2019-2019057;
SITE=;
USER=unknown;
FORMAT=text;
GUISE=transmit;
KEY=makeProjectedPlanarWire;
FILE=makeProjectedPlanarWire.x_t;
DATE=Sun Feb 14 00:37:14 2021;
**PART2;
SCH=SCH_3100264_31001;
USFLD_SIZE=0;
**PART3;
**END_OF_HEADER*****************************************************************
T51 : TRANSMIT FILE created by modeller version 310026423 SCH_3100264_31001_1300
6215 0 12 34 CCCCCCI4 mesh1006 0 I8 polyline1008 0 CCCCCCCDI5 owner1040 0 CCCCCC
I13 boundary_mesh1006 0 I17 boundary_polyline1008 0 CCCA16 index_map_offset0 0 1
 dA9 index_map82 0 A17 node_id_index_map82 0 A20 schema_embedding_map82 0 A5 chi
ld12 0 A14 lowest_node_id0 0 1 dA16 mesh_offset_data206 0 Z1 1765 0 0 0 0 0 0 0
 0 1e3 1e-8 0 2 0 1 0 3 1 3 4 5 6 0 0 7 8 9 0 0 0 0 0 0 0 13 255 3 118 0 1 0 10
 0 0 7 10 50 255 4 3 0 10 0 0 0 +0 0 0 -1224646799147354e-31 1 0 -1 -12246467991
47354e-31 0 30 255 5 77 0 8 11 0 0 +.01025 1255262969126038e-33 0 0 0 1 29 255 6
 116 0 9 12 0 .01025 1255262969126038e-33 .01075 19 8 CCCCCCCA5 owner12 0 Z7 117
 0 1 0 0 3 V0 16 255 8 75 0 ?13 0 14 5 0 0 1 18 255 9 114 0 15 0 16 6 ?1 17 255
 15 0 0 0 0 9 17 18 0 19 +18 16 111 0 20 9 21 12 ?1 17 20 0 22 19 23 16 24 14 0
 13 +18 21 108 0 23 16 25 26 ?1 29 12 113 0 16 26 6 .01025 1255262969126038e-33
 .04325 29 26 110 0 21 27 12 .017 20818995585505e-31 .04325 29 27 107 0 25 28 26
 .01975 2418677428316025e-33 .0405 18 25 105 0 29 21 30 27 ?1 29 28 104 0 30 31
 27 .01975 2418677428316025e-33 .0135 18 30 102 0 32 25 33 28 ?1 29 31 101 0 33
 34 28 .017 20818995585505e-31 .01075 18 33 99 0 17 30 35 31 ?1 29 34 98 0 35 36
 31 .021 2571758278209445e-33 .0135 18 35 96 0 37 33 38 34 ?1 29 36 95 0 38 39 3
4 .021 2571758278209445e-33 .0405 18 38 93 0 40 35 41 36 ?1 29 39 92 0 41 42 36
 .017 20818995585505e-31 .0445 18 41 90 0 43 38 44 39 ?1 29 42 89 0 44 45 39 .00
9 110218211923262e-32 .0445 18 44 87 0 46 41 47 42 ?1 29 45 86 0 47 48 42 .009 1
10218211923262e-32 .0095 18 47 84 0 49 44 50 45 ?1 29 48 83 0 50 0 45 .017 20818
995585505e-31 .0095 18 50 81 0 51 47 0 48 ?1 17 51 0 52 49 53 50 37 54 0 55 -15
 255 52 7 0 51 10 22 17 49 0 52 46 51 47 55 56 0 57 +17 53 0 52 51 40 35 58 59 0
 0 -17 37 0 0 0 0 35 51 54 0 53 +16 54 9 0 ?37 56 0 60 0 0 1 17 55 0 0 0 0 50 49
 56 0 0 -16 56 15 0 ?49 61 54 62 0 0 1 16 61 21 0 ?46 63 56 64 0 0 1 30 62 17 0
 56 60 64 0 +411996825544492e-32 504550593661933e-48 .0095 -1 -1224646799147354e
-31 433680868994202e-30 31 255 60 11 0 54 0 62 0 -.017 208200698435107e-32 .0135
 -1224646799147354e-31 1 0 -1 -1224646799147354e-31 0 .004 30 64 23 0 61 62 65 0
 +.009 110218211923262e-32 0 0 0 1 30 65 29 0 63 64 66 0 +-3859759734048395e-32
 -472684240378021e-47 .0445 -1 -1224646799147354e-31 -867361737988404e-30 16 63
 27 0 ?67 68 61 65 0 0 1 31 66 35 0 68 65 69 0 -.017 208200698435107e-32 .0405 -
1224646799147354e-31 1 0 -1 -1224646799147354e-31 0 .004 16 68 33 0 ?70 59 63 66
 0 0 1 30 69 41 0 59 66 71 0 +.021 2571758278209445e-33 -269845874040837e-32 128
4980352575412e-31 157364707574872e-46 1 16 59 39 0 ?58 18 68 69 0 0 1 30 71 47 0
 18 69 72 0 +0 0 .01075 -1 -1224646799147354e-31 0 16 18 45 0 ?15 73 59 71 0 0 1
 31 72 53 0 73 71 74 0 -.017 208200698435107e-32 .0135 -1224646799147354e-31 1 0
 -1 -1224646799147354e-31 0 .00275 16 73 51 0 ?32 75 18 72 0 0 1 30 74 59 0 75 7
2 76 0 +.01975 2418677428316025e-33 -253783619633644e-32 1284980352575412e-31 15
7364707574872e-46 1 16 75 57 0 ?29 77 73 74 0 0 1 31 76 65 0 77 74 11 0 -.017 20
8200698435107e-32 .0405 -1224646799147354e-31 1 0 -1 -1224646799147354e-31 0 .00
275 16 77 63 0 ?23 14 75 76 0 0 1 30 11 71 0 14 76 5 0 +0 0 .04325 -1 -122464679
9147354e-31 0 16 14 69 0 ?20 8 77 11 0 0 1 17 23 0 22 20 29 21 78 77 0 24 +15 22
 8 0 17 10 0 17 29 0 22 23 32 25 79 75 0 78 +17 78 0 0 0 0 25 23 77 0 0 -17 24 0
 0 0 0 21 20 14 0 0 -17 32 0 22 29 17 30 80 73 0 79 +17 79 0 0 0 0 30 29 75 0 0
 -17 17 0 22 32 19 33 15 18 0 80 -17 80 0 0 0 0 33 32 73 0 0 -17 19 0 22 17 20 9
 13 8 0 0 -17 13 0 0 0 0 16 19 8 0 0 +14 255 10 1 0 ?0 0 52 3 4 +0 0 0 0 3 17 58
 0 0 0 0 38 53 59 0 0 +17 70 0 0 0 0 41 40 68 0 0 +17 40 0 52 53 43 38 70 68 0 5
8 -17 43 0 52 40 46 41 67 63 0 70 -17 46 0 52 43 49 44 57 61 0 67 +17 67 0 0 0 0
 44 43 63 0 0 +17 57 0 0 0 0 47 46 61 0 0 -1 0 
